<svg xmlns="http://www.w3.org/2000/svg" id="Layer_1" viewBox="0 0 358 403"><defs><style>.st1,.st10,.st12,.st14,.st17,.st20,.st3,.st4,.st5,.st7,.st9{fill:none;stroke-width:2px}.st23{fill:#839ca8}.st1{stroke:#d58684}.st24{fill:#651712}.st3{stroke:#cc1913}.st25{fill:#ee261d}.st4{stroke:#f15149}.st5{stroke:#bc8e12}.st7{stroke:#cf443f}.st9{stroke:#bc6a67}.st10{stroke:#fabeba}.st26{fill:#aa0c09}.st27{fill:#fff}.st12{stroke:#ad4a43}.st14{stroke:#e9bf10}.st28{fill:#cec8c4}.st17{stroke:#cea607}.st20{stroke:#e7e4e2}.st29{fill:#fbd705}.st30{fill:#a17509}.st31{fill:#d6a61a}.st32{fill:#f47c74}</style></defs><path d="m49 1-2 3h-1l-3 1-3 5-1 2q-2 16 1 33l1 2 1 3h1l1 17v12l2 4 1 1 4 34 1 10v18q0 6 3 9v1l1 12v18l1 5 2 7 2 37" class="st7" vector-effect="non-scaling-stroke"/><path d="m61 235 6 5 1 1 6 7 2 1 1-1v-1l-1-17-1-1-1-3-1-1v-28l-1-20-2-8v-8l-1-2-1-13v-15l-1-1q-3-8-2-15l-1-9-2-17v-2l-2-12V56q0-3-3-4v-1l-2-21V19l1-1h59l4-1v-1q0-2 2-2h78l27 2 4 5h1l3 3v1l5 5 11 11 11 11 17 17 1 1 1 1h1l2 2 1 2 4 6 1 2v91l-1 8q-2 8-2 18l2 32 1-1q1-3 4-3l1-2v-6l1-1 2-4 1-2v-16" class="st3" vector-effect="non-scaling-stroke"/><path d="m282 241-1-33" class="st9" vector-effect="non-scaling-stroke"/><path d="m281 208 3-24 1-1v-3l1-17V93" class="st1" vector-effect="non-scaling-stroke"/><path d="m286 93-1-10-1-1h-23v1l-1 1-1 2h-12l-7-1h-1v-2" class="st9" vector-effect="non-scaling-stroke"/><path d="m239 83 1-1" class="st7" vector-effect="non-scaling-stroke"/><path d="m240 82 18-1h1l1-2 1-1h14" class="st1" vector-effect="non-scaling-stroke"/><path d="m274 78 7-1 1-1h-1l-44-45h-2l-1 11" class="st9" vector-effect="non-scaling-stroke"/><path d="M235 42v31" class="st1" vector-effect="non-scaling-stroke"/><path d="M235 73h-4v-1l-2-40v-1h-1l-1-1-1-10-2-2h-8" class="st9" vector-effect="non-scaling-stroke"/><path d="M216 18h-95l-1 1-1 2-1 1H61l-2 2 1 26 1 1 1 1 1 1 1 27 1 9 1 1 1 2 2 39q0 2 2 3v1l3 35v1l1 2h1l1 42" class="st1" vector-effect="non-scaling-stroke"/><path d="M77 215v11l1 2h2v1l1 4" class="st7" vector-effect="non-scaling-stroke"/><path d="M81 233v6" class="st1" vector-effect="non-scaling-stroke"/><path d="M81 239v13" class="st9" vector-effect="non-scaling-stroke"/><path d="M281 208v20l-1 2-3 4v1l-3 1-1 3h-1l-6 1-1 1-1 2-7 1-1 1-3 3m-5 0-9 2-1 1-2 1h-10m-110 5-4-2q0 1 0 0-6-4-12-3l-2-1-1-2h-1l-4-1h-1l-3-3-1-1h-5v-1l-1-4" class="st20" vector-effect="non-scaling-stroke"/><path d="m81 233-1-5v-1l-2-1-1-11" class="st10" vector-effect="non-scaling-stroke"/><path d="M235 73v2l1 1 2 2" class="st20" vector-effect="non-scaling-stroke"/><path d="M238 78h-3v3l3 1" style="fill:none;stroke-width:2px;stroke:#9a706b" vector-effect="non-scaling-stroke"/><path d="m238 82 1 1" style="fill:none;stroke-width:2px;stroke:#e1a29c" vector-effect="non-scaling-stroke"/><path d="m286 93-4 2v3l2 2v2l-1 1q-3 1-1 3v1q4 2 0 4h-1q2-5-3-4v-1l-1-2 1-1h3l1-3q-1-2-3-2l-1 1h-1v4h-3l-1-1v-3h-3l-1-1v-3h1l2-1h1v-3l1-1h2l1 1v3h-4v4l1 1h2l1-1v-3h1l2-1h1v-3l-1-1h-2l-1-1 1-2-1-1h-1q-4 0-3 3l-1 1h-3l-1-1v-1l-1-1q-3-1-3 2l-1 1h-2l-1 1v3l3 1h1v3l-1 1q-3 0-3-3l-1-2h-3v-2l-1-1-3-1-1 2 2 2 1 1h1v2l1 1 2 1 1 1c0 4 4 3 5 5l3 3 1 1 3 3 3 4 3 3 1 1 5 5v1l-18-16-4-4-4-4q0-2-4-4l-7-6-1-1q-6 0-11-3l-2-2q-3-4-2-11h-1v-1l-3-12-2-3-2-2-8-8-13-12-5-5-3-4-4-3-1-2h2v1l4 3v1q1 3 4 3l1 1v1l1 1q0 2 3 2h1q0 3 3 4h1q0 3 3 4l1 1 2 3 9 9h3v-1l-1-5-1-1h-1l-4-4-1-1-4-3v-1q-1-3-4-3l-1-1v-1l1-1h1l1 1q0 4 3 4h1l3 4 1 1 4 4 2-1v-1l-1-4-2-1h-1q0-3-2-3l-1-1q-2 0-1-1l-1-2-3-1v-1l-1-1-2-2q-2 0-2-3v-1h2l1 2q0 3 3 3l1 2q1 3 4 2l1 1q0 3 4 4h1v-1l-2-5h-2v-1q-1-4-4-4l-1-1v-1l1-1 2 1 1-1q0-5-4-5 0-3-2-3" class="st20" vector-effect="non-scaling-stroke"/><path d="M196 1v4H62L47 6l-3 3-1 2 2 38 1 1 1 15 1 15 2 5 1 19v9l1 1 3 11v16l1 12q3 4 3 11l2 28q3 3 3 9v33l-3 1" class="st4" vector-effect="non-scaling-stroke"/><path d="m303 88-1 27v28l-2 14q-3 15-1 29" class="st3" vector-effect="non-scaling-stroke"/><path d="m240 82-1-1" class="st10" vector-effect="non-scaling-stroke"/><path d="m239 81-1-3" style="fill:none;stroke-width:2px;stroke:#b28b89" vector-effect="non-scaling-stroke"/><path d="m274 78-7-10-14-13q-8-7-15-16l-2-2h-1v1l-1 4" class="st20" vector-effect="non-scaling-stroke"/><path d="m239 81-1 1" class="st12" vector-effect="non-scaling-stroke"/><path d="M301 270h-12l-4-1v-1l-1-2-1-1-6-2-1-1-7-2" class="st14" vector-effect="non-scaling-stroke"/><path d="m269 260-1-9m4-3 1 8 1 1q5 0 4-7l1-2 2 2v6l1 1h2l2-2 2-3 1-1 2-6v-1h1m1 0 1 1 1 11v8l1 1 2-1 2-14 2-3v-1l1-9" class="st17" vector-effect="non-scaling-stroke"/><path d="M269 260v4l1 1 5 4m-10-3v-8" class="st5" vector-effect="non-scaling-stroke"/><path d="M265 258v-6" class="st17" vector-effect="non-scaling-stroke"/><path d="m265 258-1 2h-3q-1-3-3-3l-2-2 1-2" class="st14" vector-effect="non-scaling-stroke"/><path d="m29 237 1 27 2 2 1-1 1-4 1-12 3-4 1-1h1m3 4 1 8 1 1h1l1-2q-1-4 1-7m2 0 2 11 1 2 2-1v-1l1-6 2-1m2 0v20l2 2 2-2v-20m4 4v9l2 1h2v-1l1-8m4 0v8l1 1 2-1 1-1v-7m4 4v8l1 1h3l1-2v-7m4 0v3l1 18h3v-19l2-2m1 0 1 1 1 7v1h3l1-1v-8m4 0v8l1 1h2l1-1 1-8m2 0h1v12l1 1h3l1-1v-11l3-1m1 0v25l1 1h3v-21l1-5m4 4-1 8 2 1h2l1-1v-8m4 1v7l1 1h3v-9m5 1v8h4" class="st17" vector-effect="non-scaling-stroke"/><path d="m158 274-1 16v1h-57l-1-1-1-2-1-1h-6l-13-1-5-2-4-2h-7l-2-1-5-3-7-2-13-5-6-1" class="st14" vector-effect="non-scaling-stroke"/><path d="M158 266v8" class="st5" vector-effect="non-scaling-stroke"/><path d="m218 255-5 1-33 2-1 2-1 1q-4-1-4 3v1l-3 1v12" class="st20" vector-effect="non-scaling-stroke"/><path d="M171 278v5" style="fill:none;stroke-width:2px;stroke:gray" vector-effect="non-scaling-stroke"/><path d="m171 283-1 3-1 1h-2l-1-1v-3" class="st20" vector-effect="non-scaling-stroke"/><path d="m171 283 4-1v-4h-4" style="fill:none;stroke-width:2px;stroke:#676462" vector-effect="non-scaling-stroke"/><path d="M235 265q-5 12-3 25 9 0 16 3l8 2 7 2 20 10 15 9 14 12 6 11" class="st14" vector-effect="non-scaling-stroke"/><path d="M239 266v7l1 1h2l1-1v-8m4 1v10l2 2h1l1-1v-5l2-2h1q2-1 2 1v5l1 2q2 0 2-2l1-5 2-1 2 3 1 11-3 4-1 1 2 1 1-1 2-2 2-2 1-10v-1h3m4 0 1 3v1h5" class="st17" vector-effect="non-scaling-stroke"/><path d="M282 278v5q1 5 5 7h2l1-3h-2l-2-2 1-5h1l2 1" class="st14" vector-effect="non-scaling-stroke"/><path d="m290 281 4 1m5 3q0 4-3 7v1l-2 5-3 3v2h1l3-3 2-4 2-4 2-1 14 14 3 2h1v-1l-6-6-4-5h-1l-6-5q-2-2 0-3m27 20-4 2-1 1-2 3-1 1-2 6v1l-2 1-1 1 3 1v-1q3-2 5-6 2-2 5 2v1l8 7 2 1 2-1-1-1q-5-3-8-8l-1-1-3-2-1-1 2-7" class="st17" vector-effect="non-scaling-stroke"/><path d="M353 334q0 4-4 4" class="st14" vector-effect="non-scaling-stroke"/><path d="m355 337-5 1" style="fill:none;stroke-width:2px;stroke:#d2b76f" vector-effect="non-scaling-stroke"/><path d="M290 281q-1-2-3-2h-1l-1 5-2 1v-1l-1-6" class="st5" vector-effect="non-scaling-stroke"/><path d="m355 337-2 2-1 7v1l-4 5-11 9" class="st20" vector-effect="non-scaling-stroke"/><path d="M77 295v13" class="st9" vector-effect="non-scaling-stroke"/><path d="M77 308v4h1l7-1" class="st1" vector-effect="non-scaling-stroke"/><path d="M85 311q0-3 6-3h36l1-1v-3h1l29-1" class="st9" vector-effect="non-scaling-stroke"/><path d="m158 304 4-1" style="stroke:#975459;fill:none;stroke-width:2px" vector-effect="non-scaling-stroke"/><path d="m294 361-2-7-2-6-4-3v-1l-4-8-5-3-3-3-1-1-3-2-14-9-9-4-1-1q-9-2-15-1h-14v5" class="st3" vector-effect="non-scaling-stroke"/><path d="M217 317h-3" class="st1" vector-effect="non-scaling-stroke"/><path d="m214 317-2-1-14 1-39-2-7-7h-2l-22 3-2 1-37 1h-1q-3-1-4 1l-1 1-9 1-1-1v-10l-2-2h-4l-1-1-3-2" class="st3" vector-effect="non-scaling-stroke"/><path d="M63 300h-2l-1 1v17c0 3-4 2-4 6v20l-1 9v1l-2 1-1 3-1 11" class="st7" vector-effect="non-scaling-stroke"/><path d="M52 369q1 6-2 10v1l-2 4v11l1 1q3 4 8 6" class="st3" vector-effect="non-scaling-stroke"/><path d="m214 317-3 4-2 1v44l1 2h11l1-1v-20l1-1h11v-8h-11l-1-1v-11l1-1h15l1-2v-5l-1-1h-21" style="fill:none;stroke-width:2px;stroke:#f7938e" vector-effect="non-scaling-stroke"/><path d="M179 390h-8q-5 3-11 3m-28 1-4 1-5 1-9 1" style="fill:none;stroke-width:2px;stroke:#aa1f18" vector-effect="non-scaling-stroke"/><path d="M158 300v4" style="fill:none;stroke-width:2px;stroke:#a9b2b6" vector-effect="non-scaling-stroke"/><path d="m85 311-1-2-7-1" class="st20" vector-effect="non-scaling-stroke"/><path d="M63 300q1 9-1 19 1 1-1 3l-1 1-2 30-2 5-5 25v10l-1 1h-1l-1-2v-8l1-2q4-5 3-13" class="st4" vector-effect="non-scaling-stroke"/><path d="m49 1-2 3h-1l-3 1-3 5-1 2q-2 16 1 33l1 2 1 3h1l1 17v12l2 4 1 1 4 34 1 10v18q0 6 3 9v1l1 12v18l1 5 2 7 2 37 6 5h1l6 8h2l1-1-1-18h-1l-2-3v-9l-1-20v-21l-2-7-1-8v-3l-1-12v-12l-1-4v-1q-2-7-2-15l-1-8-2-18v-1l-2-13-1-19q1-2-2-4l-2-22V19l1-1 59-1h4v-1q0-2 2-2l78-1 27 3 4 4 1 1 3 3v1l5 5 11 11 11 11q8 9 17 16v1l2 1 1 1 2 2 1 2 4 6v1l1 9v83l-1 8q-3 8-2 18l2 31h1l4-4 1-1v-7h1l2-4v-2h1v-16 37l-2 1q-4 0-7 3l-1 1-7 2v-33l3-25 1-4 1-16V93l-1-10-1-1h-23l-1 1v1l-2 1-12 1-6-1h-1v-2l1-1 18-1h1l1-2 1-1 13-1h7l1-1-1-1-44-45h-2v1l-1 11 1 31h-4v-1l-2-41h-1l-1-2-1-9-2-2H120l-1 3-1 1H61l-2 1 1 27 1 1h1l1 2 2 26v10l1 1 1 2 3 39 1 3 3 36v1l2 1v1l1 42v11l1 1 1 1 1 1v4l1 5v14h-8l-3-3-9-1-4-3-13-4-5-1-1-1v-3l-1-18-2-12-2-22-1-6-2-8-1-7-2-12-3-13-4-16-5-23-6-20-1-2-2-8-3-10v-1L0 45q1-5 4-8l27-24 6-5 1-1 2-2 2-2q3-3 7-2" class="st26"/><path d="M196 1v4H62L47 6l-3 3-1 2 2 38 1 1 1 15 1 15 2 5 1 19v9l1 1 3 11v16l1 12q3 4 3 11l2 28q3 3 3 9v33l-3 1-1-2-3-47-1-18v-11l-1-1-3-10v-17l-1-10v-1l-2-8-1-17-1-9-1-1-1-4-1-11-1-18-2-3-1-2q-3-17-1-33l1-2 3-4 1-1 2-1h1l2-3z" class="st32"/><path d="m303 88-1 27v28l-2 14q-3 15-1 29v22l-1 5-1 2-2 4-1 1v6l-1 2q-3 0-4 3h-2v-1l-1-30 2-18 1-8 1-55V91l-1-9-1-1-4-6-1-2-2-2h-1l-1-2-1-1-17-16-26-27-1-1-3-3-1-1-3-4-3-2-25-1-77 1q-3 0-2 2l-1 1h-3l-61 2 1 11 1 21q3 2 3 5v19l2 12v1l2 18 1 8q-1 8 3 16v4l1 12 1 12v11l2 7 1 21v20l1 8v1l2 3 1 18-1 1h-2l-6-8-7-5 3-1v-33q0-6-3-10v-1l-2-27q0-5-3-11v-1l-1-10v-16q0-5-3-11v-1l-1-9-1-19-2-5v-1l-1-14-1-15-1-2-2-4 1-35 3-3 2-1h147V1h31l3 1 5 5 7 7 19 20 36 34 4 5 2 4z" class="st25"/><path d="M235 73v2l1 1 2 2h-4v2l1 1 2 1 2 1v2h1l6 1h13l1-2 1-1v-1h23l1 1 1 10-4 1v4l2 2v2l-1 1q-3 1-1 3v1q4 2 0 4h-1q2-5-3-4v-1l-1-2 1-1h3l1-3q-1-2-3-2l-1 1h-1v4l-3-1h-1v-3l-3-1h-1v-3l1-1h2l1-1v-2l1-1h2l1 1v3h-4v4h3l1-1v-2l1-1h3v-3l-1-1h-2l-1-1 1-2-1-1h-1q-4-1-3 3l-1 1h-3l-1-1v-2h-1q-3-1-3 2l-1 1h-2l-1 1v3h3l1 1v3h-1q-3 1-3-2l-1-2h-3v-2l-1-1-3-1-1 2 2 2h1l1 1v2l1 1 2 1 1 1c0 4 4 2 5 5q0 2 3 2l1 2 3 3 3 4 3 3 1 1 5 5v1l-18-16-4-4-4-4q0-2-4-4l-7-6-1-1q-6 0-11-3l-2-2q-3-5-2-11l-1-1v-1l-3-11-2-3-2-2-8-8-13-12v-1l-5-4-3-4-4-3-1-2h2q1 3 4 4v1q1 3 4 3l1 1v1l1 1 3 2h1q0 3 3 4h1q0 3 3 4l1 1 2 3 9 8q1 2 3 1v-1l-1-5-1-1h-1l-4-4-1-1q-1-3-4-3v-1q-1-3-4-3l-1-1v-1l1-1h1l1 1q0 3 3 3l1 1 3 4 1 1 4 4 2-1v-1l-1-4-2-1h-1l-2-4h-1q-2 0-1-2l-1-2h-3v-1l-1-2-2-1q-2 0-2-3v-1h2l1 1q0 4 3 4l1 2 4 2h1q0 3 4 5h1v-1l-2-5-2-1q-1-4-4-4l-1-1v-1l1-1h3q0-5-4-5l-2-4 9 1 1 2 1 9 1 1h1v1l1 5 2 36h3Z" class="st28"/><path d="M216 18q2 0 2 3v1q4-1 4 4l-1 1h-3v2l1 1q3 0 3 3l1 1 2 1 2 5-1 1h-1q-3-2-4-5v-1q-3 1-4-2l-1-2q-3 0-3-3l-1-1h-2q0 3 2 3l2 2 1 2 2 1 2 2q-1 2 1 2h1l2 3h1l2 1 1 4v1l-3 1-3-4-1-1-3-3-1-1q-3 0-3-4h-3v1l1 1q3 0 4 4l4 3 1 2 4 3h1l1 1 1 5v1h-4l-8-9-2-3-1-1q-3-1-3-3l-1-1q-3 0-4-4l-4-2v-2h-1l-4-4q-4-1-4-4v-1h-1l-1 1 1 1 3 3 4 4 4 5h1l13 12 8 8 2 3 2 3 2 11 1 1q-1 7 3 11l2 2q5 3 11 3l1 1 6 6h1l4 5 4 3v1l4 3 17 16h1v-1l-5-5-1-1-3-3-4-4q-3-1-2-3l-1-1-4-3c0-2-4-1-4-5l-1-1-3-1v-2l-1-1h-1l-2-3 1-2 3 1v1l1 2 3 1 1 1q0 3 3 3l1-1v-3h-4l-1-1 1-3h1l2-1 1-1q0-2 3-2l1 1v1l1 1h3v-1q0-3 4-3l1 2v2h3l1 1v3l-1 1h-2l-1 1v2l-1 1h-2l-1-1v-3h3l1-1v-3h-4v3l-1 1h-2l-1 1v3l4 1v2l1 1 2 1 1-1v-3l1-1h1q2-1 2 2 1 2-1 3h-2l-1 1v2h1q4 0 3 4l1 1q3-2 0-4v-1q-2-3 1-3l1-3-1-1-1-1-1-1 1-3 4-1-1 17-1 73-2 3-1 22-1 20v1q-3 2-3 5l-1 1-2 1-2 2v1h-6l-2 2v2h-1l-6 1-1 1-3 3h-6l-8 2h-1q-1 2-3 2h-13v-1l-1-2h-51v3l-3 1h-1v2l-1 1-2 1h-1v2l-1 1h-21v-3h-1l-24-1-3-1-1-1q-5-3-12-2l-1-1-2-2-5-1v-1l-3-3h-1l-5-1h-1v-5l-1-6v-4l-1-1-1-1-1-1-1-11v-41l-1-1-1-1-1-1-2-36h-1l-1-4v-7l-1-1-3-34-1-9-2-28h-1l-1-1-1-27 1-1h41l17-1h1l1-3z" class="st27"/><path d="M214 23h3v2l-1 1h-1zm-6 3h-2l-1-1 3-3z" class="st28"/><path d="M226 27v3l-2 1h-1l-1-3v-1z" class="st27"/><path d="M204 27v2l-1 1h-1l-1-1v-1zm70 51-7-10-14-13q-8-7-15-16l-2-2h-1v1l-1 4 1-10 1-2v1l45 45v1z" class="st28"/><rect width="3" height="3" x="206" y="31" class="st28" rx="1" ry="1"/><path d="m274 78-14 1-1 2h-1l-18 1-1-1-1-3-2-2h-1v-3l-1-31 1-4 1-1 2 2q7 9 15 16l15 14z" class="st27"/><path d="m175 107-4-9" class="st10" vector-effect="non-scaling-stroke"/><path d="m175 107-4-9V79l2-1 1 1 2 9v1l1 2 1 1v15z" class="st27"/><path d="m238 78 1 3-1 1-3-1-1-1v-1l1-1z" class="st24"/><path d="m240 82-1 1-1-1 1-1z" class="st32"/><path d="M103 108v-3l1-1h12v-3l1-1h8v-4h3l1-1v-3l1-1h3v-8h9v12l-1 1h-4v4h-4v3l-1 1h-7l-1 1 1 3h-21Zm115-17v4h4v4h7l1 1v2l1 1 11 1 1 1v2h-21v-3l-1-1h-7v-4h-4l-1-1v-3h-3l-1-1V82h4v3l1 1h2l1 1v3h4z"/><path d="M299 186q-2-14 1-29l2-14v-28l1-26v46l-1 22-1 1-1 1v1z" class="st26"/><rect width="4" height="4" x="265" y="90" class="st28" rx="1" ry="1" transform="rotate(-.4 271.9 86.9)"/><path d="M265 99h3l1 1v3h3l1 1v3l3 1h1l1 3 2 1 1 1v2h-2l-1-1q0-3-3-3l-1-1-1-2-3-1-1-1v-2l-1-1h-3z" class="st28"/><path d="M136 116h-7l-1-1v-3h7l1 1zm74 13-1 1-1 3h-6l-2-2 1-10v-1h3l1-1v-3h3l1-2v-2h9v3l-1 1h-4v3l1 1h15l1 1v3h4l1 1v4h4l-1 3v1h-3l-1-1v-4zm-74-13h5v4h3l1 1v3h4v9h-7l-1-1v-2l-1-1h-25v4h-8v-4h3l1-1v-3h8l1-1v-4h17z"/><path d="M282 116q2 0 2 3h-2z" class="st28"/><path d="M162 189q0-6 3-10v-2l2-6 2-4q1-5 4-9l1-1 1-9 2-2 2 1 3 6h1l1 4 16 16v2l-5 4h-1l-11 3-2 1-4 2-6 3z" class="st29"/><path d="m230 182 1-1h19l1 1 4 3 1 2-1 1h-14l-2-2-7-2z" class="st27"/><path d="m281 208 1 33-1 2h-1l-15 2h-1v3h-11l3-3 1-1 7-1 1-2 1-1 6-1h1l1-3 2-1h1l3-5v-1z" class="st28"/><path d="m157 230 1-7h1l2-1 1-1q0-3 3-3l3-3 6-2 1-1v-1l1-1 33 1v2l1 1 7 1h1v3h3l1 2q0 3 2 2l2 2v9l-1 2-5-1-1-1-2-2h-21l-15 1h-1l-1 2h-1l-11 2-1 1v1l-1 1-9 1-2-2 1-6z"/><path d="M200 227v-4l-1-1h-2v-1q0-2-3-2l-18-1" class="st12" vector-effect="non-scaling-stroke"/><path d="M183 228q-6 0-10 3" style="fill:none;stroke-width:2px;stroke:#cb793f" vector-effect="non-scaling-stroke"/><path d="M200 227v-4l-1-1h-2v-1q0-2-3-2l-18-1 3-1h1q0-3 3-3l25 1 5 5 4 3q2 1 1 4z" class="st24"/><path d="m81 233-1-4v-1l-2-1-1-1v-11l1 11 2 1v1z" class="st32"/><rect width="4" height="9" x="303" y="218" class="st31" rx="1" ry="1" transform="rotate(-.2 314.7 229.7)"/><path d="m176 218 18 1q3 0 3 2v1l2 1h1v4h-17l-10 4q-5-1-8 3h-3v-6l1-1 6-4 3-3z" class="st32"/><rect width="8" height="4" x="24" y="225" class="st31" rx="1" ry="1" transform="rotate(-88.2 27.5 226.9)"/><path d="m183 228-4 2h-1l-5 1q4-4 10-4" class="st30"/><rect width="5" height="13" x="192" y="231" class="st28" rx="2" ry="2" transform="rotate(-89.9 194 237.5)"/><path d="M301 270h-12l-4-1v-1l-1-2-1-1-6-2-1-1-7-2v-9q-1-4 3-3l1 8 1 1q5 0 4-7l1-2 2 2v6l2 1h1l2-2 2-3 1-1 2-6v-1h2l1 1 1 11v8l1 1 2-1 2-14 2-3v-1l1-9q0-2 3-2h1q1 15-2 30zM29 237l1 27 2 2 1-1 1-4 1-12 3-4 1-1h1q3 0 3 4v8l2 1 1-2 1-7 3 1 2 10 1 2 2-1 1-7 2-1 2 1v20l2 1 2-1v-20h3l1 1v11l1 1h2l1-1 1-8h3l1 8 1 1 2-1 1-1v-7h3l1 1v11l1 1h2l2-1v-8h3l1 2v1l1 18 2 1 1-1v-19l2-2h1l1 1v7l1 1h3l1-1v-8h4v9h3l1-1 1-8h2l1 1v12h4l1-11v-1l3-1h1v26h4v-20l1-5h3v11l1 1h3l1-1-1-7h5v8h4v-8h4v7l1 1h3v17h-57l-2-1v-2l-1-1H77q-3 0-4-3l-4-1-7-1-2-1-5-2-7-2q-5-4-13-6h-7l-2-2-1-32 2-1z" class="st29"/><path d="M41 244h-2l-1 1-3 4-1 12-1 3q0 2-2 1l-1-1v-27 2l1 1h2l1 1 1 2zm262-7-1 9v1l-2 3-2 14-2 1-1-1v-8l-1-10-1-2q2-5 7-5 1 1 3-2" class="st30"/><path d="M116 257h-9l-18-1 1-3h-1l-8-1v-14l1 5h1l5 1v1l3 3h1l4 1h1l1 2 2 1q6-1 12 3zm92-17 1 1v1l-2 2h-1q-2 0-1-2v-1l1-1z" class="st28"/><rect width="4" height="4" x="179" y="240" class="st28" rx="2" ry="2" transform="rotate(-89.7 181.2 241.8)"/><path d="M292 244h-1v1l-2 6-1 1-2 3-2 2h-1l-2-1v-6l-2-2-1 2q1 7-4 6h-1l-1-8 7-1q3 0 3-2h1q4-2 10-1Zm-244 4q-2 3-1 7l-1 2-2-1-1-8z" class="st30"/><path d="M248 248v3l-1 1h-21 10l2-1 1-1z" class="st28"/><path d="m58 252-2 1-1 6-1 2h-1l-1-2-2-10h4l2 2zm211-1v13l1 1 5 4-4-3-6-1v-13z" class="st30"/><path d="M265 252v6l-1 2h-3v-1q-1-2-3-2l-2-2 1-2z" class="st29"/><path d="M64 253v20l-2 1-2-1v-20z" class="st30"/><path d="m218 255-5 1-33 2-1 2-1 1q-4-1-4 3v1l-3 1v17l-1 3-1 1h-2l-1-1v-21l1-3 1-1h2v-1l1-3h1l6-1h1v-2l1-1h37z" class="st27"/><path d="m257 253-1 2 2 2 3 3 2 1 1-1 1-2v7h-8l-1-1-1-2-5-1-16-2v-1l2-1h14l1-1v-3z" class="st31"/><path d="M218 255v1h1l2 1h1v3l1 1h3l-1 34-2 1v1q-1 3-4 3l-1 1q-2 3-6 2h-41l-1-3h-3l-1-1v-15 2l1 1h2l1-1v-3h5v-4l-1-1h-3v-11l3-2v-1q0-3 4-3h1l1-3 1-1z" class="st28"/><path d="M179 295v-8h-4" style="fill:none;stroke-width:2px;stroke:#424e54" vector-effect="non-scaling-stroke"/><path d="m73 257-1 8h-3l-1-1v-9q1 2 5 2m8 0v7l-1 1-2 1-1-1v-8z" class="st30"/><path d="M301 270q-2 0-3 2l-1 2-10-1-3-3-8-1-6-4-1-1v-4l7 2 1 1 6 3h1l1 2 1 1 3 1z" class="st31"/><path d="M90 261v7l-1 2h-2l-2-1v-8zm10 0-2 2v19h-3l-1-1v-20zm7 0v8h-4l-1-8h-1zm9 0-1 8-1 1h-2l-1-1v-8zm11 0-3 1v11l-1 1h-3l-1-1v-12h-1zm6 0-1 5v21h-4v-26z" class="st30"/><path d="M179 295v-8h-4v-4h16l1-1v-3l-1-1h-16v-4h4l1-1v-12l33 2 1 2h3l1 2v25l-1 3v1h-2l-2 1v3h-33v-1z"/><path d="M209 268q-9-2-21-1v4l8 7m13-9v20l-2 2h-18l-1-2v-2" class="st14" vector-effect="non-scaling-stroke"/><path d="M141 265v8l-1 1h-3l-1-1 1-8z" class="st30"/><path d="M235 265q-5 12-3 25 9 0 16 3l8 2 7 2 20 10 15 9 14 12 6 11q-6-8-14-13v-1l-4-1-1-1q-5-6-11-7l-2-1-6-3-1-1-8-4-2-1-12-4h-1l-2-2-14-2-1-1-2-1-6-1-1-2 1-27v-1z" class="st31"/><path d="M239 266v7l1 1h2l1-1v-8l4 1v10l2 2h1l1-1v-5l2-2h1q1-1 2 1v5l1 2q2 0 2-2l1-5 2-1 2 3v11l-2 4h-1v1l2 1 1-1 2-2 2-2v-10l1-1h7l1 3v1h5l-1 5q1 5 5 7h3v-3h-2l-2-2 1-5h2l2 1 3 1q4-1 6 3 0 4-3 7l-1 1-1 5-3 3v1l1 1 3-3 2-4 2-4 1-1h1l14 14 3 2h1v-1l-6-6-5-5-1-1-5-4q-2-2 0-3 3 0 5 2l2 2 3 3 1 1q5 0 5 2l9 8 1 2-3 3h-1l-3 3v1l-2 6-1 1-2 2v1h3l5-6q2-3 4 1l1 1 8 7 2 2 1-2v-1q-5-2-9-8l-1-1-2-1-1-2 2-7 6 6 4 4 1 1 4 6h1l3 2 1 5q0 2 3 3-1 4-3 4l-4 2-11 11q-4 2-7-3l-1-1-5-6-3-2-7-11-14-12-15-9-27-12-7-2q-8-3-16-3h-1q0-13 3-25z" class="st29"/><path d="M149 266v8h-4v-8zm9 0v8h-4v-8z" class="st30"/><path d="m29 270 6 1q8 2 13 5l7 2 5 3 2 1h7l4 2 4 2 14 1h6l1 1v2l2 1h57v-1l1-16v-9h3l1 1v29H94v-3l-1-1c-11 0-15 1-23-1l-5-3-7-1h-2l-11-4-1-1-3-2-5-1-1-1-5-4zm180-2q-9-2-21-1v4l8 7h-4v-4h-8l-1-1v-7l1-1h24z" class="st31"/><path d="M243 266v7l-1 1h-2v-1l-1-7zm30 8h-3l-1 1-1 9-2 3-2 2-2 1-1-1 1-1v-1l3-3-1-11q1-1-2-3l-1 1-1 5q-1 2-3 2l-1-2v-5l-2-1h-1l-1 2v4l-2 2h-1l-1-2-1-10h5l1 2v1l13 1 4 2 1 1z" class="st30"/><path d="M209 268v21l-2 1-18 1-1-2v-2h3l1-1v-3l1-1h3v-4q-2-4-8-7v-3l1-1q11-1 20 1" class="st29"/><path d="M209 269h3l1 2v20h-3l-1 1v2l-1 1h-23l-1-1v-7l1-1h3v3l1 2 18-1 2-1z" class="st31"/><path d="m294 282-4-1q-1-2-3-2h-1l-1 5-2 1-1-1v-6h-4l-1-1-1-3 3 1 9 3h1l1 2 1 1z" class="st30"/><path d="M171 278h4v5h-4z"/><path d="m290 281-2-1h-1l-1 5 2 2h1l1 3h-3q-4-2-5-7v-5l1 6 1 1 1-1 1-4 1-1q2 0 3 2" class="st31"/><path d="M77 295v17h1l7-1q0-3 6-3h36l1-1v-3l30-1h4q3 0 3 3l2 2 4 1 2 2 9 1h33l6-5 6-6 1-1 5 1 9 3 6 1 29 11 10 5q7 3 7 8l1 19-1 13-2-7-2-6-4-3v-1l-5-8-4-3-4-3v-1l-3-2-14-9-9-4-1-1q-9-2-16-1h-13v5h-3l-2-1-14 1-39-2-7-7h-2l-22 2-2 1-37 1h-1l-4 2-1 1-9 1-1-1v-10l-2-2h-4l-1-1-3-2h-2l-1 1v17c0 3-4 2-4 6v20l-1 9v1l-2 1-1 3-1 11q1 6-1 10v1l-2 4v12l9 6c-6 0-9-6-12-9l-14-13q-10-7-14-18 0-7 2-11l2-6 2-10 3-11 2-5 3-13v-2q3-9 4-19l1-1 7 2 19 6h1q6 4 14 3" class="st26"/><path d="M302 286v3l6 5 1 1 4 5 6 6v1h-1l-3-2-16-14-2 5-2 3-3 4h-1v-2l3-3 1-5 1-1q3-3 3-7z" class="st30"/><path d="M179 295h-3l-1-1v-7h4z" class="st23"/><path d="M158 300v4h-30v3l-1 1H91q-6 0-6 3l-1-2-7-1v-12h13v3z" class="st28"/><path d="M63 300q1 9-1 19 1 1-1 3l-1 1-2 30-2 5-5 25v10l-1 1h-1l-1-2v-8l1-2q4-5 3-13v-10l2-3 1-2 1-1v-29c0-4 4-3 4-6l1-18z" class="st32"/><path d="M162 303h-4v-3h4z" class="st23"/><path d="m214 317-3 4-2 1v44l1 2h11l1-1v-20l1-1h11v-8h-11l-1-1v-11l1-1h15l1-2v-5l-1-1h-21v-5h13l16 1 1 1 9 5 14 8 3 3 4 3 4 3 5 9 4 3 2 6 2 7v12q0 3-3 5l-6 3-23 1h-1l-2 1-3 1-25 1-17 2-1 1h-1l-5 1h-5l-23 1-7 1-12 2-32 2-4 1-9 2-30 2-1 1-27 1q-5-2-8-6l-1-1v-11l2-4v-1q3-4 2-10 1 8-3 13l-1 2v8l1 2h1l1-1v-10l2-2 1-2 2-21 2-5 2-30 1-1 1-3q2-10 1-19l3 2 1 1h4l2 2v10l1 1 9-1 1-1q1-2 4-1h1l37-1 2-1q1-3 4-3h20l7 7 1 1h3l35 1 14-1z" class="st25"/><path d="m329 307-1 7 1 1 2 2 1 1q4 6 8 8l1 2h-1l-3-1-8-8q-2-4-5-2l-4 6-3 1v-2l2-1v-1l2-6 1-1 3-3v-1z" class="st30"/><path d="m85 311-7 1-1-1v-3l7 1zm129 6h24l1 1v5l-1 2h-15l-1 1v11l1 1h11v8h-11l-1 1v20l-1 1h-11l-1-1v-44l2-2zm-44 7 1-2v-1q9-2 16 1l1 1q2 2 7 3l1 1 2 2 2 2v6l-1 22-3 3-1 1-4 3-1 1-5 2-1 1-1 1h-1q-9 2-19 1l-1-1v-31l1-14 1-1zm-39 52h-10l-1-1v-44l1-1 3-4h1q9-2 19 0h1l1 2 1 1 3 3 1 1 2 1v16l-1 1-3 3-1 1-3 3-2 1-11 2v15z" class="st27"/><path d="M176 329q5-1 8 3h1l6 6 1 2q1 7-1 13v2q-6 9-15 8h-1v-4z" class="st25"/><path d="m343 336 4-4-3 5z" class="st30"/><path d="M132 336q0-3 3-3 10 1 10 9t-10 9h-1q-2 0-2-3z" class="st25"/><path d="m355 337-5 1h-1q3 0 4-4z" class="st31"/><path d="m355 337-2 2v7l-1 1-4 5-11 9q-3-2-3-5-1-1 2-4l14-14z" class="st28"/><path d="M355 337q5 3 3 8l-1 1-2 1-5 5-5 6-1 1-3 3q-2 2-3 1l-1-2 11-9 4-5v-1q2-2 1-7 0-2 2-1Z" class="st27"/><path d="m179 390-11 3h-8q6 0 11-3zm-47 4-5 3h-1l-11 1 8-2 5-1z" class="st24"/></svg>